<?xml version="1.0" encoding="UTF-8" standalone="no"?>
<svg width="26px" height="26px" viewBox="0 0 26 26" version="1.1" xmlns="http://www.w3.org/2000/svg" xmlns:xlink="http://www.w3.org/1999/xlink">
    <!-- Generator: Sketch 39.1 (31720) - http://www.bohemiancoding.com/sketch -->
    <defs></defs>
    <g id="Page-1" stroke="none" stroke-width="1" fill="none" fill-rule="evenodd">
        <g id="Group-5" transform="translate(1.000000, 1.000000)">
            <path d="M0,12 C0,18.6283859 5.37269768,24 12.0002435,24 C18.6273019,24 24,18.6283859 24,12 C24,5.37307662 18.6273014,0 12.0002435,0 C5.37269768,0 0,5.37258865 0,12 Z" id="Phone-Icon-2" stroke="#869FB1"></path>
            <path d="M9.19294031,10.853988 C9.19294031,10.4387583 10.4385863,9.19234091 10.4385863,8.77711113 C10.023371,7.94665181 8.77699663,5.86977507 7.94656589,5.45454545 C7.11613524,5.45454545 5.45454545,7.1161925 5.45454545,7.9466519 C6.28570459,12.0996771 12.0994475,17.9150777 16.2523294,18.7448085 C17.0834885,18.7448085 18.7450782,17.0838899 18.7450782,16.252702 C17.9139191,15.4215142 16.2523294,14.1758252 15.4218988,13.7605956 C15.0066827,13.7605968 13.7610207,15.0070132 13.3458222,15.0070132 C12.1001762,14.5917835 9.60815576,12.0996771 9.19294031,10.853988 Z" id="Path" fill="#869FB1"></path>
        </g>
    </g>
</svg>